<?xml version="1.0" standalone="no"?>
<!DOCTYPE svg PUBLIC "-//W3C//DTD SVG 20010904//EN"
 "http://www.w3.org/TR/2001/REC-SVG-20010904/DTD/svg10.dtd">
<svg version="1.0" xmlns="http://www.w3.org/2000/svg"
 width="201.000000pt" height="201.000000pt" viewBox="0 0 201.000000 201.000000"
 preserveAspectRatio="xMidYMid meet">
<metadata>
Created by potrace 1.11, written by Peter Selinger 2001-2013
</metadata>
<g transform="translate(0.000000,201.000000) scale(0.100000,-0.100000)"
fill="#000000" stroke="none">
<path d="M1494 1492 c-83 -25 -149 -65 -211 -129 -51 -53 -113 -159 -113 -195
0 -41 -20 -11 -81 120 -98 212 -87 197 -151 199 l-55 2 -46 -100 c-26 -54 -49
-99 -51 -99 -3 0 -12 13 -20 29 -24 46 -94 109 -155 138 l-56 28 -240 0 -240
0 0 -463 c-1 -274 3 -466 9 -469 12 -8 216 -9 228 -2 6 4 10 56 10 126 l0 119
97 0 c54 1 110 4 124 8 26 6 25 5 -27 -107 -80 -170 -86 -153 54 -152 65 1
121 3 123 6 2 2 16 30 30 61 l25 57 192 0 191 0 30 -62 31 -63 117 2 c64 1
119 2 124 3 4 0 0 12 -9 26 l-17 26 54 -22 c62 -24 181 -33 249 -18 64 14 160
61 204 99 l37 33 -87 88 c-77 77 -90 87 -104 75 -55 -48 -159 -63 -230 -33
-116 50 -162 190 -104 313 30 64 76 99 148 113 71 13 115 4 183 -39 22 -14 27
-10 107 73 l85 88 -32 28 c-82 70 -161 101 -277 107 -63 3 -101 -1 -146 -14z
m-960 -227 c47 -22 80 -86 72 -137 -14 -90 -61 -118 -194 -118 l-90 0 0 135
-1 135 91 0 c60 0 101 -5 122 -15z m493 -381 c-5 -5 -167 -7 -172 -2 -3 3 15
49 40 103 l46 99 45 -99 c24 -54 43 -99 41 -101z"/>
</g>
</svg>
